<svg xmlns="http://www.w3.org/2000/svg" x="0px" y="0px" width="38" height="38" viewBox="0,0,256,256">
<g transform="translate(-44.8,-44.8) scale(1.35,1.35)"><g fill="#000000" fill-rule="nonzero" stroke="none" stroke-width="1" stroke-linecap="butt" stroke-linejoin="miter" stroke-miterlimit="10" stroke-dasharray="" stroke-dashoffset="0" font-family="none" font-weight="none" font-size="none" text-anchor="none" style="mix-blend-mode: normal"><g transform="scale(10.66667,10.66667)"><path d="M6,3c-1.64497,0 -3,1.35503 -3,3v12c0,1.64497 1.35503,3 3,3h12c1.64497,0 3,-1.35503 3,-3v-12c0,-1.64497 -1.35503,-3 -3,-3zM6,5h12c0.56503,0 1,0.43497 1,1v12c0,0.56503 -0.43497,1 -1,1h-12c-0.56503,0 -1,-0.43497 -1,-1v-12c0,-0.56503 0.43497,-1 1,-1zM11.56445,6.01563c-1.01641,0.07726 -2.01022,0.67938 -2.52734,1.59375c-0.01738,0.02878 -0.02857,0.06055 -0.04492,0.08984c-0.83608,0.07073 -1.6793,0.54489 -2.17383,1.30859c-0.655,0.958 -0.71056,2.32928 -0.10156,3.36328c0.01593,0.02893 0.03783,0.05371 0.05469,0.08203c-0.35759,0.7599 -0.3693,1.72863 0.04492,2.53906c0.502,1.047 1.66328,1.78053 2.86328,1.76953c0.03278,0.00062 0.06495,-0.00539 0.09766,-0.00586c0.47964,0.68923 1.312,1.18234 2.2207,1.22852c1.158,0.088 2.37384,-0.54875 2.96484,-1.59375c0.01738,-0.02878 0.02857,-0.06056 0.04492,-0.08984c0.83608,-0.07072 1.6793,-0.54489 2.17383,-1.30859c0.655,-0.958 0.71056,-2.32928 0.10156,-3.36328c-0.01593,-0.02893 -0.03783,-0.05371 -0.05469,-0.08203c0.35759,-0.7599 0.3693,-1.72863 -0.04492,-2.53906c-0.502,-1.047 -1.66328,-1.78053 -2.86328,-1.76953c-0.03278,-0.00063 -0.06494,0.00539 -0.09766,0.00586c-0.47964,-0.68923 -1.312,-1.18234 -2.2207,-1.22852c-0.14475,-0.011 -0.2923,-0.01104 -0.4375,0zM12,7.26758c0.38009,-0.0407 0.77781,0.02518 1.1582,0.18359c-0.74412,0.28457 -1.38108,0.83508 -1.72266,1.54297c-0.39938,0.76279 -0.40677,1.67462 -0.10156,2.41211c-0.01282,0.01393 -0.0252,0.02826 -0.03711,0.04297c-0.48246,-0.27664 -0.85057,-0.66412 -1.05078,-1.11719c-0.294,-0.645 -0.25192,-1.39256 0.08008,-1.97656c0.326,-0.599 0.95883,-1.00389 1.67383,-1.08789zM8.64063,8.72266c-0.12551,0.78662 0.03285,1.61407 0.47461,2.26367c0.46072,0.72629 1.24634,1.18813 2.03711,1.29297c0.00592,0.01844 0.01243,0.03667 0.01953,0.05469c-0.48092,0.27954 -0.99963,0.40295 -1.49219,0.34961c-0.706,-0.068 -1.33383,-0.47664 -1.67383,-1.05664c-0.356,-0.582 -0.38852,-1.33019 -0.10352,-1.99219c0.15452,-0.34978 0.41037,-0.66205 0.73828,-0.91211zM14.32031,8.72852c0.682,-0.017 1.34634,0.32925 1.77734,0.90625c0.22561,0.30875 0.36721,0.68619 0.41992,1.0957c-0.61834,-0.50258 -1.41481,-0.78083 -2.19922,-0.72266c-0.85949,0.03597 -1.6506,0.48629 -2.13672,1.11914c-0.01875,-0.00452 -0.03764,-0.00843 -0.05664,-0.01172c-0.00159,-0.55624 0.15097,-1.06701 0.44336,-1.4668c0.411,-0.577 1.07995,-0.91492 1.75195,-0.91992zM14.32031,11.31445c0.706,0.068 1.33383,0.47664 1.67383,1.05664c0.356,0.582 0.38851,1.33214 0.10351,1.99414c-0.15452,0.34978 -0.41037,0.6619 -0.73828,0.91211c0.12551,-0.78662 -0.03285,-1.61407 -0.47461,-2.26367c-0.46072,-0.72629 -1.24635,-1.18813 -2.03711,-1.29297c-0.00652,-0.01912 -0.01368,-0.03801 -0.02148,-0.05664c0.48129,-0.28012 1.00112,-0.403 1.49414,-0.34961zM12.70313,12.55078c0.48229,0.27663 0.84866,0.66422 1.04883,1.11719c0.294,0.645 0.25387,1.39256 -0.07812,1.97656c-0.326,0.599 -0.96078,1.00389 -1.67578,1.08789c-0.37956,0.0407 -0.77586,-0.02518 -1.15625,-0.18359c0.74412,-0.28457 1.38108,-0.83508 1.72266,-1.54297c0.39938,-0.76279 0.40677,-1.67462 0.10156,-2.41211c0.01282,-0.01393 0.0252,-0.02826 0.03711,-0.04297zM11.81836,12.87305c0.01875,0.00452 0.03764,0.00843 0.05664,0.01172c0.00159,0.55624 -0.15097,1.06701 -0.44336,1.4668c-0.411,0.577 -1.07995,0.91492 -1.75195,0.91992c-0.682,0.017 -1.34634,-0.32925 -1.77734,-0.90625c-0.22561,-0.30875 -0.36721,-0.68619 -0.41992,-1.0957c0.61834,0.50258 1.41481,0.78083 2.19922,0.72266c0.85949,-0.03597 1.6506,-0.48629 2.13672,-1.11914z" fill="white"></path></g></g></g>
</svg>